<?xml version="1.0" encoding="UTF-8"?>
<svg width="260px" height="69px" viewBox="0 0 260 69" version="1.1" xmlns="http://www.w3.org/2000/svg" xmlns:xlink="http://www.w3.org/1999/xlink">
    <!-- Generator: Sketch 50 (54983) - http://www.bohemiancoding.com/sketch -->
    <title>Logo - White bg</title>
    <desc>Created with Sketch.</desc>
    <defs></defs>
    <g id="Logo---White-bg" stroke="none" stroke-width="1" fill="none" fill-rule="evenodd">
        <g id="Voyajoy-Logo-#3" transform="translate(52.000000, 21.000000)">
            <path d="M19.4195099,17.7542434 L19.4195099,17.7531911 C19.3384841,17.5499282 19.2487769,17.3498221 19.149263,17.1541004 L19.1288458,17.115868 C19.1122869,17.0837738 19.0947635,17.0508028 19.0780439,17.018884 L19.0547329,16.9764426 L19.0468553,16.9615355 L17.3750544,13.8010509 L17.3750544,13.7999987 L15.9879692,11.1802041 L15.2992496,9.87784804 L13.9169874,7.26541934 L13.6399884,6.74402094 L11.9914984,3.63036229 L11.9797625,3.60914157 L11.9759041,3.59967117 L11.8852324,3.42517019 L11.8852324,3.42411792 L11.8677089,3.39518057 L11.8384496,3.33993654 C11.597462,2.90798086 11.3048687,2.49935043 10.9624381,2.12474331 C9.97340845,1.0479232 8.72683238,0.426384045 7.43910032,0.259424316 C7.20309649,0.228557811 6.96516348,0.212598425 6.7270697,0.212598425 L6.7261051,0.212598425 C5.19368788,0.212598425 3.66127065,0.849921593 2.49073668,2.12474331 C2.27418549,2.36097729 2.07821228,2.61001386 1.9026563,2.87062537 C1.62260271,3.28258798 1.39431563,3.72296181 1.21586587,4.17947039 C0.50769362,5.99059762 0.584700319,8.07952339 1.44704673,9.83102215 L1.61488596,10.1491576 C1.62549649,10.1693261 1.63723238,10.1894945 1.64800367,10.209663 L1.64896826,10.2119429 L7.00213955,20.3261598 L8.38440175,22.9406931 L8.67795965,23.492958 L8.68583716,23.5089174 L8.68583716,23.5099696 L8.70336061,23.5408361 L8.7813319,23.6876274 L8.7911386,23.7056913 L8.79789075,23.7195462 C8.89065247,23.8854536 8.98920175,24.0473274 9.09739697,24.2048167 L9.09739697,24.205869 C9.27295295,24.4654282 9.46908692,24.7144648 9.68467352,24.9496465 C10.6698448,26.0254144 11.9135271,26.6480058 13.1962754,26.8160178 L13.1962754,26.8170701 C13.6555826,26.8777508 14.1209989,26.8798553 14.5803061,26.823559 C14.5939711,26.8225068 14.6066716,26.8204022 14.6203367,26.81935 L14.6203367,26.8181223 C15.9108018,26.6532671 17.161397,26.0296234 18.1513912,24.9496465 C18.458775,24.6144994 18.7250027,24.2516426 18.950396,23.8686174 L19.2410601,23.3205615 L19.2429893,23.3161771 L19.2468477,23.3077589 C19.3101893,23.1735949 19.368708,23.0375016 19.4224037,22.9001808 C20.0643405,21.2593455 20.0633759,19.3919219 19.4195099,17.7542434" id="Fill-1" fill="#57D0C0"></path>
            <path d="M18.7858223,24.2604471 L18.7866261,24.2599276 C18.9075218,24.0839924 19.0215046,23.9016502 19.1271275,23.712035 L19.147384,23.6741119 C19.1644251,23.6427691 19.1817878,23.6102142 19.198829,23.5790446 L19.2210146,23.5360998 L19.2288921,23.5215539 L20.9018184,20.401648 L20.9026223,20.4011285 L22.2889036,17.8138767 L22.9785878,16.5284762 L24.3613323,13.9493632 L24.6367237,13.4336791 L26.2842491,10.3587959 L26.2953419,10.3373235 L26.3009687,10.3290116 L26.3942127,10.1580982 L26.3950165,10.1575787 L26.4090031,10.1271017 L26.4382624,10.0725549 C26.660762,9.63444854 26.8388902,9.15980447 26.9650912,8.65537609 C27.3253668,7.20114008 27.1954682,5.73149242 26.6842337,4.44799667 C26.5906682,4.21249286 26.4844022,3.98270349 26.3654357,3.76053335 L26.3649534,3.75966753 C25.5987447,2.33019405 24.3264462,1.21536058 22.7292404,0.752838032 C22.4334318,0.667467902 22.137784,0.607552963 21.84294,0.572573721 C21.3760768,0.514736756 20.9122682,0.519239035 20.460517,0.578114987 C18.6687849,0.81154082 17.0489113,1.91477226 16.0896232,3.58373233 L15.9209802,3.89733336 C15.9102089,3.91742045 15.9000806,3.93820019 15.8894701,3.95828728 L15.888184,3.96019209 L10.5353342,13.947112 L9.15098207,16.5270909 L8.85935336,17.0735982 L8.85051125,17.0888367 L8.84970742,17.0893562 L8.8339524,17.1210453 L8.75646341,17.2663304 L8.74697824,17.2843395 L8.73942226,17.2975 C8.65389498,17.465816 8.57479833,17.6375952 8.50390073,17.816301 L8.5030969,17.8169937 C8.38477345,18.1089492 8.28509881,18.4147578 8.20616293,18.7318221 C7.84476197,20.1820753 7.97240982,21.6494718 8.48026819,22.9289848 L8.47946436,22.9295043 C8.66096867,23.3880441 8.89198876,23.8230334 9.16641556,24.2239094 C9.1741323,24.2360309 9.18217058,24.2467671 9.18972656,24.2590618 L9.19069116,24.2585423 C9.96686723,25.3808219 11.0870816,26.2395449 12.4396022,26.6298579 C12.859361,26.7510731 13.2805668,26.8203389 13.6972711,26.8412918 L14.2776347,26.8419845 L14.2819754,26.8416381 L14.2906567,26.8411186 C14.4289151,26.8340189 14.5662089,26.8213779 14.7020557,26.8037151 C16.325627,26.5922812 17.8077246,25.6694872 18.7858223,24.2604471" id="Fill-4" fill="#71B6FA"></path>
            <path d="M9.09995532,24.2557771 C8.85453053,23.8826292 8.64612375,23.4814482 8.47946436,23.0604116 L8.48026819,23.0598921 C7.97240982,21.7803792 7.84476197,20.3129827 8.20616293,18.8627294 C8.28509881,18.5456651 8.38477345,18.2398565 8.5030969,17.947901 L8.50390073,17.9472084 C8.57479833,17.7685025 8.65389498,17.5967233 8.73942226,17.4284073 L8.74697824,17.4152468 L8.75646341,17.3972377 L8.8339524,17.2519527 L8.84970742,17.2202635 L8.85051125,17.219744 L8.85935336,17.2045056 L9.15098207,16.6579982 L10.5353342,14.0780194 L14.0357387,7.54724409 L15.2727726,9.88519632 L15.9614922,11.1875524 L17.3485774,13.8073469 L17.3485774,13.8083992 L19.0203783,16.9688837 L19.0282559,16.9837909 L19.0515669,17.0262323 C19.0682865,17.0581511 19.0858099,17.0911221 19.1023688,17.1232163 L19.122786,17.1614486 C19.2222999,17.3571703 19.312007,17.5572765 19.3930329,17.7605394 L19.3930329,17.7615917 C20.0368989,19.3992702 20.0378635,21.2666937 19.3959267,22.9075291 C19.342231,23.0448499 19.2837123,23.1809432 19.2203707,23.3151072 L19.2165123,23.3235254 L19.2145831,23.3279098 L18.923919,23.8759656 C18.6985257,24.2589909 18.432298,24.6218477 18.1249142,24.9569948 C17.13492,26.0369717 15.8843248,26.6606154 14.5938597,26.8254706 L14.5938597,26.8266982 C14.5801946,26.8277505 14.5674941,26.829855 14.5538291,26.8309073 C14.0945219,26.8872036 13.6291056,26.8850991 13.1697984,26.8244183 L13.1697984,26.8233661 C11.8870501,26.6553541 10.6433678,26.0327626 9.65819652,24.9569948 C9.45441952,24.7346961 9.26802232,24.5000188 9.09995532,24.2557771 Z" id="Combined-Shape" fill="#3EA7E6"></path>
        </g>
        <path d="M99.2607148,40.9221833 L99.3078623,40.9221833 L104.729825,26.4243275 L106.545003,26.4243275 L100.156517,43.114542 L98.3649123,43.114542 L92,26.4243275 L93.8387524,26.4243275 L99.2607148,40.9221833 Z M126.336237,34.7694347 C126.336237,36.0424236 126.116218,37.2132414 125.676173,38.2819234 C125.236127,39.3506054 124.627145,40.2739013 123.849207,41.0518389 C123.071269,41.8297766 122.151902,42.438759 121.091078,42.8788045 C120.030254,43.31885 118.879081,43.5388695 117.637524,43.5388695 C116.395967,43.5388695 115.244794,43.31885 114.18397,42.8788045 C113.123146,42.438759 112.203779,41.8297766 111.425841,41.0518389 C110.647903,40.2739013 110.038921,39.3506054 109.598875,38.2819234 C109.15883,37.2132414 108.93881,36.0424236 108.93881,34.7694347 C108.93881,33.4964459 109.15883,32.3256281 109.598875,31.2569461 C110.038921,30.1882641 110.647903,29.2649682 111.425841,28.4870306 C112.203779,27.7090929 113.123146,27.1001105 114.18397,26.660065 C115.244794,26.2200195 116.395967,26 117.637524,26 C118.879081,26 120.030254,26.2200195 121.091078,26.660065 C122.151902,27.1001105 123.071269,27.7090929 123.849207,28.4870306 C124.627145,29.2649682 125.236127,30.1882641 125.676173,31.2569461 C126.116218,32.3256281 126.336237,33.4964459 126.336237,34.7694347 Z M124.544633,34.7694347 C124.544633,33.7950482 124.387476,32.8678234 124.073158,31.9877323 C123.758839,31.1076413 123.303085,30.3336443 122.70588,29.665718 C122.108675,28.9977918 121.381825,28.4673877 120.525308,28.0744899 C119.668791,27.6815922 118.706206,27.4851462 117.637524,27.4851462 C116.568842,27.4851462 115.606257,27.6815922 114.74974,28.0744899 C113.893223,28.4673877 113.166373,28.9977918 112.569168,29.665718 C111.971963,30.3336443 111.516209,31.1076413 111.20189,31.9877323 C110.887572,32.8678234 110.730415,33.7950482 110.730415,34.7694347 C110.730415,35.7438213 110.887572,36.6710461 111.20189,37.5511372 C111.516209,38.4312282 111.971963,39.2012963 112.569168,39.8613646 C113.166373,40.5214329 113.893223,41.047908 114.74974,41.4408058 C115.606257,41.8337036 116.568842,42.0301495 117.637524,42.0301495 C118.706206,42.0301495 119.668791,41.8337036 120.525308,41.4408058 C121.381825,41.047908 122.108675,40.5214329 122.70588,39.8613646 C123.303085,39.2012963 123.758839,38.4312282 124.073158,37.5511372 C124.387476,36.6710461 124.544633,35.7438213 124.544633,34.7694347 Z M136.320792,43.114542 L134.623482,43.114542 L134.623482,35.9245485 L128.376438,26.4243275 L130.498076,26.4243275 L135.519284,34.5101235 L140.587641,26.4243275 L142.567836,26.4243275 L136.320792,35.9245485 L136.320792,43.114542 Z M144.537315,43.114542 L142.674989,43.114542 L149.888556,26.4243275 L151.538719,26.4243275 L158.705139,43.114542 L156.819239,43.114542 L154.980486,38.7298246 L146.352494,38.7298246 L144.537315,43.114542 Z M146.988985,37.1739572 L154.343995,37.1739572 L150.66649,28.3102274 L146.988985,37.1739572 Z M162.395502,39.7199221 C162.521229,40.3799904 162.815898,40.933968 163.279518,41.3818714 C163.743137,41.8297749 164.352119,42.0537233 165.106483,42.0537233 C165.687972,42.0537233 166.1673,41.9476425 166.544482,41.7354777 C166.921664,41.5233129 167.22419,41.2365018 167.452071,40.8750358 C167.679952,40.5135699 167.837109,40.1010334 167.923546,39.637414 C168.009984,39.1737946 168.053202,38.6905376 168.053202,38.1876284 L168.053202,26.4243275 L169.750512,26.4243275 L169.750512,38.3054971 C169.750512,38.855554 169.691578,39.437034 169.573709,40.0499546 C169.455839,40.6628751 169.231891,41.2286395 168.901857,41.7472645 C168.571823,42.2658896 168.116068,42.6941418 167.534579,43.0320339 C166.953091,43.369926 166.206596,43.5388695 165.295073,43.5388695 C164.084948,43.5388695 163.087002,43.2206271 162.301207,42.5841326 C161.515411,41.9476382 161.020368,41.134352 160.816061,40.1442496 L162.395502,39.7199221 Z M191.8284,34.7694347 C191.8284,36.0424236 191.60838,37.2132414 191.168335,38.2819234 C190.728289,39.3506054 190.119307,40.2739013 189.341369,41.0518389 C188.563431,41.8297766 187.644064,42.438759 186.58324,42.8788045 C185.522416,43.31885 184.371243,43.5388695 183.129686,43.5388695 C181.888129,43.5388695 180.736956,43.31885 179.676132,42.8788045 C178.615308,42.438759 177.695941,41.8297766 176.918003,41.0518389 C176.140065,40.2739013 175.531083,39.3506054 175.091038,38.2819234 C174.650992,37.2132414 174.430973,36.0424236 174.430973,34.7694347 C174.430973,33.4964459 174.650992,32.3256281 175.091038,31.2569461 C175.531083,30.1882641 176.140065,29.2649682 176.918003,28.4870306 C177.695941,27.7090929 178.615308,27.1001105 179.676132,26.660065 C180.736956,26.2200195 181.888129,26 183.129686,26 C184.371243,26 185.522416,26.2200195 186.58324,26.660065 C187.644064,27.1001105 188.563431,27.7090929 189.341369,28.4870306 C190.119307,29.2649682 190.728289,30.1882641 191.168335,31.2569461 C191.60838,32.3256281 191.8284,33.4964459 191.8284,34.7694347 Z M190.036795,34.7694347 C190.036795,33.7950482 189.879638,32.8678234 189.56532,31.9877323 C189.251001,31.1076413 188.795247,30.3336443 188.198042,29.665718 C187.600838,28.9977918 186.873988,28.4673877 186.01747,28.0744899 C185.160953,27.6815922 184.198368,27.4851462 183.129686,27.4851462 C182.061004,27.4851462 181.098419,27.6815922 180.241902,28.0744899 C179.385385,28.4673877 178.658535,28.9977918 178.06133,29.665718 C177.464125,30.3336443 177.008371,31.1076413 176.694052,31.9877323 C176.379734,32.8678234 176.222577,33.7950482 176.222577,34.7694347 C176.222577,35.7438213 176.379734,36.6710461 176.694052,37.5511372 C177.008371,38.4312282 177.464125,39.2012963 178.06133,39.8613646 C178.658535,40.5214329 179.385385,41.047908 180.241902,41.4408058 C181.098419,41.8337036 182.061004,42.0301495 183.129686,42.0301495 C184.198368,42.0301495 185.160953,41.8337036 186.01747,41.4408058 C186.873988,41.047908 187.600838,40.5214329 188.198042,39.8613646 C188.795247,39.2012963 189.251001,38.4312282 189.56532,37.5511372 C189.879638,36.6710461 190.036795,35.7438213 190.036795,34.7694347 Z M201.812954,43.114542 L200.115644,43.114542 L200.115644,35.9245485 L193.8686,26.4243275 L195.990238,26.4243275 L201.011447,34.5101235 L206.079803,26.4243275 L208.059998,26.4243275 L201.812954,35.9245485 L201.812954,43.114542 Z" id="VOYAJOY-Copy" fill="#666666"></path>
    </g>
</svg>